<?xml version="1.0" ?><svg data-name="Layer 1" id="Layer_1" viewBox="0 0 64 64" xmlns="http://www.w3.org/2000/svg"><path d="M60.56,26.9639c-.002-.011-.01-.0191-.0117-.03a28.79,28.79,0,0,0-3.41-9.3664c-.0107-.0219-.01-.0461-.0228-.0676s-.0329-.0327-.0464-.0526a29.1371,29.1371,0,0,0-2.814-4.0165c-.016-.0227-.0208-.05-.039-.0715a.9268.9268,0,0,0-.0747-.06,29.257,29.257,0,0,0-3.44-3.44.92.92,0,0,0-.0595-.0745c-.0216-.0183-.0488-.023-.0716-.0391a29.1338,29.1338,0,0,0-4.0161-2.8137c-.02-.0136-.0317-.0344-.0529-.0466s-.0457-.0121-.0677-.0228a28.7867,28.7867,0,0,0-9.3664-3.41c-.0108-.0022-.0188-.01-.03-.0117s-.02.0023-.0311.0008a28.6085,28.6085,0,0,0-10.01,0c-.0107.0015-.0206-.0027-.0312-.0008s-.019.01-.03.0117a28.7854,28.7854,0,0,0-9.3662,3.41c-.0221.0106-.0464.01-.0679.0229s-.0329.033-.0529.0466A29.1327,29.1327,0,0,0,13.4305,9.746c-.0226.016-.05.0207-.0711.0387a.92.92,0,0,0-.06.0745,29.2494,29.2494,0,0,0-3.44,3.44.9268.9268,0,0,0-.0747.06c-.0182.0216-.023.0488-.039.0715a29.1415,29.1415,0,0,0-2.8138,4.0162c-.0136.02-.0344.0317-.0466.0529s-.0121.0457-.0228.0676a28.787,28.787,0,0,0-3.41,9.3663c-.0022.0109-.01.0189-.0117.03s.0023.0205.0008.0312a28.608,28.608,0,0,0,0,10.01c.0015.0107-.0027.0206-.0008.0312.0022.0122.01.0217.0124.0337a28.7864,28.7864,0,0,0,3.41,9.3626c.0107.0219.01.0461.0228.0676a.9551.9551,0,0,0,.0632.0817,29.12,29.12,0,0,0,2.7972,3.9874c.016.0227.0208.05.039.0715s.047.031.0677.0516A29.2413,29.2413,0,0,0,13.3,54.1408a.92.92,0,0,0,.06.0745.9069.9069,0,0,0,.0788.0453,29.1272,29.1272,0,0,0,4.0089,2.8075c.02.0136.0317.0344.0529.0466a.9527.9527,0,0,0,.0991.0409,28.7871,28.7871,0,0,0,9.335,3.3923c.0108.0022.0188.01.03.0117.0232.004.0457.0036.0688.006a28.6174,28.6174,0,0,0,9.9346,0c.0231-.0024.0456-.002.0688-.006.011-.002.019-.01.03-.0117a28.7871,28.7871,0,0,0,9.335-3.3923.9527.9527,0,0,0,.0991-.0409c.0212-.0122.0329-.033.0529-.0466a29.1272,29.1272,0,0,0,4.0089-2.8075.9069.9069,0,0,0,.0788-.0453.92.92,0,0,0,.0595-.0745,29.2413,29.2413,0,0,0,3.4475-3.4486c.0207-.0206.0486-.0288.0677-.0516s.023-.0488.039-.0715a29.12,29.12,0,0,0,2.7972-3.9874.9551.9551,0,0,0,.0632-.0817c.0124-.0215.0121-.0457.0228-.0676a28.7864,28.7864,0,0,0,3.41-9.3626c.0025-.012.01-.0215.0124-.0337.0019-.0106-.0023-.02-.0008-.0312a28.608,28.608,0,0,0,0-10.01C60.5573,26.9844,60.5615,26.9745,60.56,26.9639ZM57.6933,40.2878,53.9345,38.92c.2012-.6365.3717-1.2862.5175-1.9451l3.9441.6955A26.7674,26.7674,0,0,1,57.6933,40.2878ZM55.859,44.62l-3.4669-2.0018c.31-.5929.5971-1.1993.8555-1.8211l3.7591,1.3683A26.9107,26.9107,0,0,1,55.859,44.62Zm-2.5613,3.9454-3.0635-2.5708q.6124-.796,1.1543-1.646L54.8544,46.35Q54.131,47.4983,53.2977,48.5656ZM46.35,54.8544l-2.0012-3.4659q.8487-.5424,1.646-1.1543l2.5708,3.0635Q47.4987,54.1295,46.35,54.8544Zm-4.1844,2.1523-1.3683-3.7591c.6218-.2584,1.2282-.5455,1.8211-.8555L44.62,55.859A26.9107,26.9107,0,0,1,42.1656,57.0067ZM19.38,55.859l2.0018-3.4669c.5929.31,1.1993.5971,1.8211.8555l-1.3683,3.7591A26.9107,26.9107,0,0,1,19.38,55.859Zm-3.9454-2.5613,2.5708-3.0635q.7961.6124,1.646,1.1543L17.65,54.8544Q16.5018,54.131,15.4344,53.2977Zm9.646.6368c.6365.2012,1.2862.3717,1.9451.5175L26.33,58.3961a26.7674,26.7674,0,0,1-2.6178-.7028Zm3.9152.8629c.66.0866,1.328.1482,2.0044.1773v4a27.02,27.02,0,0,1-2.7-.2344ZM33,54.9747c.6764-.0291,1.3442-.0907,2.0044-.1773L35.7,58.74a27.02,27.02,0,0,1-2.7.2344Zm3.9745-.5227c.6589-.1458,1.3086-.3163,1.9451-.5175l1.3682,3.7588a26.7674,26.7674,0,0,1-2.6178.7028ZM32,53A21,21,0,1,1,53,32,21.0236,21.0236,0,0,1,32,53ZM9.1456,46.35l3.4659-2.0012q.5424.8487,1.1543,1.646l-3.0635,2.5708Q9.8706,47.4987,9.1456,46.35ZM6.9933,42.1656l3.7591-1.3683c.2584.6218.5455,1.2282.8555,1.8211L8.141,44.62A26.9107,26.9107,0,0,1,6.9933,42.1656ZM5.6039,37.67l3.9441-.6955c.1458.6589.3163,1.3086.5175,1.9451L6.3067,40.2878A26.7674,26.7674,0,0,1,5.6039,37.67Zm.7028-13.9578L10.0655,25.08c-.2012.6365-.3717,1.2862-.5175,1.9451L5.6039,26.33A26.7674,26.7674,0,0,1,6.3067,23.7122ZM8.141,19.38l3.4669,2.0018c-.31.5929-.5971,1.1993-.8555,1.8211L6.9933,21.8344A26.9107,26.9107,0,0,1,8.141,19.38Zm2.5613-3.9454,3.0635,2.5708q-.6125.7961-1.1543,1.646L9.1456,17.65Q9.8691,16.5018,10.7023,15.4344Zm-1.5,13.5612c-.0866.66-.1482,1.328-.1773,2.0044h-4A27.02,27.02,0,0,1,5.26,28.3ZM5.0254,33h4c.0291.6764.0907,1.3442.1773,2.0044L5.26,35.7A27.02,27.02,0,0,1,5.0254,33ZM17.65,9.1456l2.0012,3.4659q-.8487.5424-1.646,1.1543l-2.5708-3.0635Q16.5014,9.8706,17.65,9.1456Zm4.1844-2.1523,1.3683,3.7591c-.6218.2584-1.2282.5455-1.8211.8555L19.38,8.141A26.9107,26.9107,0,0,1,21.8344,6.9933ZM44.62,8.141l-2.0018,3.4669c-.5929-.31-1.1993-.5971-1.8211-.8555l1.3683-3.7591A26.9107,26.9107,0,0,1,44.62,8.141Zm3.9454,2.5613-2.5708,3.0635q-.796-.6125-1.646-1.1543L46.35,9.1456Q47.4983,9.8691,48.5656,10.7023Zm-9.646-.6368c-.6365-.2012-1.2862-.3717-1.9451-.5175L37.67,5.6039a26.7674,26.7674,0,0,1,2.6178.7028Zm-3.9152-.8629c-.66-.0866-1.328-.1482-2.0044-.1773v-4a27.02,27.02,0,0,1,2.7.2344ZM31,9.0253c-.6764.0291-1.3442.0907-2.0044.1773L28.3,5.26A27.02,27.02,0,0,1,31,5.0254Zm-3.9745.5227c-.6589.1458-1.3086.3163-1.9451.5175L23.7122,6.3067A26.7674,26.7674,0,0,1,26.33,5.6039ZM54.8544,17.65l-3.4659,2.0012q-.5424-.8487-1.1543-1.646l3.0635-2.5708Q54.1295,16.5014,54.8544,17.65Zm2.1523,4.1844-3.7591,1.3683c-.2584-.6218-.5455-1.2282-.8555-1.8211L55.859,19.38A26.9107,26.9107,0,0,1,57.0067,21.8344ZM58.3961,26.33l-3.9441.6955c-.1458-.6589-.3163-1.3086-.5175-1.9451l3.7588-1.3682A26.7674,26.7674,0,0,1,58.3961,26.33ZM54.9747,31c-.0291-.6764-.0907-1.3442-.1773-2.0044L58.74,28.3a27.02,27.02,0,0,1,.2344,2.7Zm-.1773,4.0044c.0866-.66.1482-1.328.1773-2.0044h4a27.02,27.02,0,0,1-.2344,2.7ZM52.0157,13.9,48.95,16.4722q-.68-.7417-1.4222-1.4222l2.5727-3.0657Q51.1051,12.8936,52.0157,13.9ZM13.9,11.9843,16.4722,15.05q-.7417.68-1.4222,1.4222L11.9843,13.9Q12.8936,12.8949,13.9,11.9843ZM11.9843,50.1005,15.05,47.5278q.68.7418,1.4222,1.4222L13.9,52.0157Q12.8949,51.1064,11.9843,50.1005Zm38.1162,1.9152L47.5278,48.95q.7418-.68,1.4222-1.4222l3.0657,2.5727Q51.1064,51.1051,50.1005,52.0157Z"/><path d="M34,21H27a1,1,0,0,0-1,1v9H25a1,1,0,0,0,0,2h1v2H25a1,1,0,0,0,0,2h1v5a1,1,0,0,0,2,0V37h6a1,1,0,0,0,0-2H28V33h6a6,6,0,0,0,0-12Zm0,10H28V23h6a4,4,0,0,1,0,8Z"/></svg>