<svg width="16" height="16" viewBox="0 0 16 16" fill="none" xmlns="http://www.w3.org/2000/svg">
<path d="M13.3025 2.69752C12.0719 1.45889 10.4478 0.688426 8.70999 0.518948C6.97223 0.34947 5.22979 0.7916 3.78307 1.76912C2.33634 2.74663 1.276 4.19827 0.784851 5.87378C0.293697 7.54928 0.402509 9.34364 1.09253 10.9475C1.16445 11.0966 1.18804 11.2644 1.16003 11.4275L0.500028 14.6C0.4746 14.7217 0.479792 14.8477 0.515138 14.9668C0.550484 15.086 0.614877 15.1944 0.702528 15.2825C0.774381 15.3538 0.859933 15.4099 0.954028 15.4473C1.04812 15.4847 1.14881 15.5026 1.25003 15.5H1.40003L4.61003 14.855C4.77318 14.8354 4.93862 14.8587 5.09003 14.9225C6.6939 15.6125 8.48827 15.7213 10.1638 15.2302C11.8393 14.739 13.2909 13.6787 14.2684 12.232C15.2459 10.7853 15.6881 9.04281 15.5186 7.30505C15.3491 5.56729 14.5787 3.94311 13.34 2.71252L13.3025 2.69752ZM5.00003 8.75002C4.85169 8.75002 4.70669 8.70603 4.58335 8.62362C4.46001 8.54121 4.36388 8.42407 4.30712 8.28703C4.25035 8.14999 4.2355 7.99919 4.26444 7.8537C4.29338 7.70821 4.36481 7.57458 4.4697 7.46969C4.57459 7.3648 4.70822 7.29337 4.85371 7.26443C4.9992 7.23549 5.15 7.25034 5.28704 7.30711C5.42409 7.36387 5.54122 7.46 5.62363 7.58334C5.70604 7.70668 5.75003 7.85168 5.75003 8.00002C5.75003 8.19893 5.67101 8.38969 5.53036 8.53035C5.38971 8.671 5.19894 8.75002 5.00003 8.75002ZM8.00003 8.75002C7.85169 8.75002 7.70669 8.70603 7.58335 8.62362C7.46001 8.54121 7.36388 8.42407 7.30712 8.28703C7.25035 8.14999 7.2355 7.99919 7.26444 7.8537C7.29338 7.70821 7.36481 7.57458 7.4697 7.46969C7.57459 7.3648 7.70822 7.29337 7.85371 7.26443C7.9992 7.23549 8.15 7.25034 8.28704 7.30711C8.42409 7.36387 8.54122 7.46 8.62363 7.58334C8.70604 7.70668 8.75003 7.85168 8.75003 8.00002C8.75003 8.19893 8.67101 8.38969 8.53036 8.53035C8.38971 8.671 8.19894 8.75002 8.00003 8.75002ZM11 8.75002C10.8517 8.75002 10.7067 8.70603 10.5833 8.62362C10.46 8.54121 10.3639 8.42407 10.3071 8.28703C10.2504 8.14999 10.2355 7.99919 10.2644 7.8537C10.2934 7.70821 10.3648 7.57458 10.4697 7.46969C10.5746 7.3648 10.7082 7.29337 10.8537 7.26443C10.9992 7.23549 11.15 7.25034 11.287 7.30711C11.4241 7.36387 11.5412 7.46 11.6236 7.58334C11.706 7.70668 11.75 7.85168 11.75 8.00002C11.75 8.19893 11.671 8.38969 11.5304 8.53035C11.3897 8.671 11.1989 8.75002 11 8.75002Z" fill="white"/>
</svg>
